<svg xmlns="http://www.w3.org/2000/svg">
<symbol id="clock" viewBox="0 0 362.58 364.26"><path d="M192.51 358h-21.93c-4.29-.5-8.59-.93-12.87-1.52-25.66-3.54-49.48-12.14-71.15-26.4-41.14-27.07-66.89-64.73-77.02-112.94-1.63-7.76-2.3-15.73-3.41-23.6v-21.93c.23-1.44.44-2.88.69-4.32 1.83-10.54 2.82-21.32 5.65-31.59C22.49 99.45 42.26 69.28 71.7 45.8c39.23-31.29 84.1-43.12 133.7-37.04 25.38 3.11 48.95 11.78 70.34 25.85 46.16 30.36 73.32 72.84 79.92 127.84 4.47 37.21-2.14 72.6-20.73 105.27-26.6 46.74-66.44 75.76-119.09 86.93-7.68 1.63-15.55 2.26-23.33 3.35zm113.21-175.52c-.15-68.98-55.64-124.34-124.37-124.07-68.93.27-123.9 55.29-123.99 124.12-.09 68.83 55.34 124.28 124.2 124.24 68.92-.04 124.32-55.49 124.16-124.29z"/><path d="M181.54 182.59v-3.99-74c0-7.38 2.29-9.7 9.57-9.72 3.77-.01 7.54-.05 11.31.01 5.55.09 8.11 2.6 8.42 8.15.05.8.01 1.6.01 2.4v95.92c0 8.32-2.21 10.5-10.58 10.51h-66.8c-1.14 0-2.29.02-3.42-.14-4.56-.62-6.71-2.87-6.85-7.44-.14-4.45-.11-8.91-.04-13.36.09-5.78 2.63-8.31 8.45-8.33 15.3-.05 30.6-.02 45.91-.02 1.23.01 2.46.01 4.02.01z"/></symbol>
<symbol id="facebook" viewBox="0 0 264 512"><path fill="currentColor" d="M215.8 85H264V3.6C255.7 2.5 227.1 0 193.8 0 124.3 0 76.7 42.4 76.7 120.3V192H0v91h76.7v229h94V283h73.6l11.7-91h-85.3v-62.7c0-26.3 7.3-44.3 45.1-44.3z"/></symbol>
<symbol id="instagram" viewBox="0 0 448 512"><path fill="currentColor" d="M224.1 141c-63.6 0-114.9 51.3-114.9 114.9s51.3 114.9 114.9 114.9S339 319.5 339 255.9 287.7 141 224.1 141zm0 189.6c-41.1 0-74.7-33.5-74.7-74.7s33.5-74.7 74.7-74.7 74.7 33.5 74.7 74.7-33.6 74.7-74.7 74.7zm146.4-194.3c0 14.9-12 26.8-26.8 26.8-14.9 0-26.8-12-26.8-26.8s12-26.8 26.8-26.8 26.8 12 26.8 26.8zm76.1 27.2c-1.7-35.9-9.9-67.7-36.2-93.9-26.2-26.2-58-34.4-93.9-36.2-37-2.1-147.9-2.1-184.9 0-35.8 1.7-67.6 9.9-93.9 36.1s-34.4 58-36.2 93.9c-2.1 37-2.1 147.9 0 184.9 1.7 35.9 9.9 67.7 36.2 93.9s58 34.4 93.9 36.2c37 2.1 147.9 2.1 184.9 0 35.9-1.7 67.7-9.9 93.9-36.2 26.2-26.2 34.4-58 36.2-93.9 2.1-37 2.1-147.8 0-184.8zM398.8 388c-7.8 19.6-22.9 34.7-42.6 42.6-29.5 11.7-99.5 9-132.1 9s-102.7 2.6-132.1-9c-19.6-7.8-34.7-22.9-42.6-42.6-11.7-29.5-9-99.5-9-132.1s-2.6-102.7 9-132.1c7.8-19.6 22.9-34.7 42.6-42.6 29.5-11.7 99.5-9 132.1-9s102.7-2.6 132.1 9c19.6 7.8 34.7 22.9 42.6 42.6 11.7 29.5 9 99.5 9 132.1s2.7 102.7-9 132.1z"/></symbol>
<symbol id="life-ring" viewBox="0 0 512 512"><path d="M256 504c136.967 0 248-111.033 248-248S392.967 8 256 8 8 119.033 8 256s111.033 248 248 248zm-103.398-76.72l53.411-53.411c31.806 13.506 68.128 13.522 99.974 0l53.411 53.411c-63.217 38.319-143.579 38.319-206.796 0zM336 256c0 44.112-35.888 80-80 80s-80-35.888-80-80 35.888-80 80-80 80 35.888 80 80zm91.28 103.398l-53.411-53.411c13.505-31.806 13.522-68.128 0-99.974l53.411-53.411c38.319 63.217 38.319 143.579 0 206.796zM359.397 84.72l-53.411 53.411c-31.806-13.505-68.128-13.522-99.973 0L152.602 84.72c63.217-38.319 143.579-38.319 206.795 0zM84.72 152.602l53.411 53.411c-13.506 31.806-13.522 68.128 0 99.974L84.72 359.398c-38.319-63.217-38.319-143.579 0-206.796z"/></symbol>
<symbol id="phone" viewBox="0 0 512 512"><path fill="currentColor" d="M493.4 24.6l-104-24c-11.3-2.6-22.9 3.3-27.5 13.9l-48 112c-4.2 9.8-1.4 21.3 6.9 28l60.6 49.6c-36 76.7-98.9 140.5-177.2 177.2l-49.6-60.6c-6.8-8.3-18.2-11.1-28-6.9l-112 48C3.9 366.5-2 378.1.6 389.4l24 104C27.1 504.2 36.7 512 48 512c256.1 0 464-207.5 464-464 0-11.2-7.7-20.9-18.6-23.4z"/></symbol>
<symbol id="pinterest" viewBox="0 0 384 512"><path fill="currentColor" d="M204 6.5C101.4 6.5 0 74.9 0 185.6 0 256 39.6 296 63.6 296c9.9 0 15.6-27.6 15.6-35.4 0-9.3-23.7-29.1-23.7-67.8 0-80.4 61.2-137.4 140.4-137.4 68.1 0 118.5 38.7 118.5 109.8 0 53.1-21.3 152.7-90.3 152.7-24.9 0-46.2-18-46.2-43.8 0-37.8 26.4-74.4 26.4-113.4 0-66.2-93.9-54.2-93.9 25.8 0 16.8 2.1 35.4 9.6 50.7-13.8 59.4-42 147.9-42 209.1 0 18.9 2.7 37.5 4.5 56.4 3.4 3.8 1.7 3.4 6.9 1.5 50.4-69 48.6-82.5 71.4-172.8 12.3 23.4 44.1 36 69.3 36 106.2 0 153.9-103.5 153.9-196.8C384 71.3 298.2 6.5 204 6.5z"/></symbol>
<symbol id="plane" viewBox="0 0 576 512"><path fill="currentColor" d="M480 192H365.71L260.61 8.06A16.014 16.014 0 0 0 246.71 0h-65.5c-10.63 0-18.3 10.17-15.38 20.39L214.86 192H112l-43.2-57.6c-3.02-4.03-7.77-6.4-12.8-6.4H16.01C5.6 128-2.04 137.78.49 147.88L32 256 .49 364.12C-2.04 374.22 5.6 384 16.01 384H56c5.04 0 9.78-2.37 12.8-6.4L112 320h102.86l-49.03 171.6c-2.92 10.22 4.75 20.4 15.38 20.4h65.5c5.74 0 11.04-3.08 13.89-8.06L365.71 320H480c35.35 0 96-28.65 96-64s-60.65-64-96-64z"/></symbol>
<symbol id="twitter" viewBox="0 0 512 512"><path fill="currentColor" d="M459.37 151.716c.325 4.548.325 9.097.325 13.645 0 138.72-105.583 298.558-298.558 298.558-59.452 0-114.68-17.219-161.137-47.106 8.447.974 16.568 1.299 25.34 1.299 49.055 0 94.213-16.568 130.274-44.832-46.132-.975-84.792-31.188-98.112-72.772 6.498.974 12.995 1.624 19.818 1.624 9.421 0 18.843-1.3 27.614-3.573-48.081-9.747-84.143-51.98-84.143-102.985v-1.299c13.969 7.797 30.214 12.67 47.431 13.319-28.264-18.843-46.781-51.005-46.781-87.391 0-19.492 5.197-37.36 14.294-52.954 51.655 63.675 129.3 105.258 216.365 109.807-1.624-7.797-2.599-15.918-2.599-24.04 0-57.828 46.782-104.934 104.934-104.934 30.213 0 57.502 12.67 76.67 33.137 23.715-4.548 46.456-13.32 66.599-25.34-7.798 24.366-24.366 44.833-46.132 57.827 21.117-2.273 41.584-8.122 60.426-16.243-14.292 20.791-32.161 39.308-52.628 54.253z"/></symbol>
</svg>