<svg xmlns="http://www.w3.org/2000/svg">
<symbol id="amex" viewBox="0 0 576 512"><path fill="currentColor" d="M325.1 167.8c0-16.4-14.1-18.4-27.4-18.4l-39.1-.3v69.3H275v-25.1h18c18.4 0 14.5 10.3 14.8 25.1h16.6v-13.5c0-9.2-1.5-15.1-11-18.4 7.4-3 11.8-10.7 11.7-18.7zm-29.4 11.3H275v-15.3h21c5.1 0 10.7 1 10.7 7.4 0 6.6-5.3 7.9-11 7.9zM279 268.6h-52.7l-21 22.8-20.5-22.8h-66.5l-.1 69.3h65.4l21.3-23 20.4 23h32.2l.1-23.3c18.9 0 49.3 4.6 49.3-23.3 0-17.3-12.3-22.7-27.9-22.7zm-103.8 54.7h-40.6v-13.8h36.3v-14.1h-36.3v-12.5h41.7l17.9 20.2zm65.8 8.2l-25.3-28.1L241 276zm37.8-31h-21.2v-17.6h21.5c5.6 0 10.2 2.3 10.2 8.4 0 6.4-4.6 9.2-10.5 9.2zm-31.6-136.7v-14.6h-55.5v69.3h55.5v-14.3h-38.9v-13.8h37.8v-14.1h-37.8v-12.5zM576 255.4h-.2zm-194.6 31.9c0-16.4-14.1-18.7-27.1-18.7h-39.4l-.1 69.3h16.6l.1-25.3h17.6c11 0 14.8 2 14.8 13.8l-.1 11.5h16.6l.1-13.8c0-8.9-1.8-15.1-11-18.4 7.7-3.1 11.8-10.8 11.9-18.4zm-29.2 11.2h-20.7v-15.6h21c5.1 0 10.7 1 10.7 7.4 0 6.9-5.4 8.2-11 8.2zm-172.8-80v-69.3h-27.6l-19.7 47-21.7-47H83.3v65.7l-28.1-65.7H30.7L1 218.5h17.9l6.4-15.3h34.5l6.4 15.3H100v-54.2l24 54.2h14.6l24-54.2v54.2zM31.2 188.8l11.2-27.6 11.5 27.6zm477.4 158.9v-4.5c-10.8 5.6-3.9 4.5-156.7 4.5 0-25.2.1-23.9 0-25.2-1.7-.1-3.2-.1-9.4-.1 0 17.9-.1 6.8-.1 25.3h-39.6c0-12.1.1-15.3.1-29.2-10 6-22.8 6.4-34.3 6.2 0 14.7-.1 8.3-.1 23h-48.9c-5.1-5.7-2.7-3.1-15.4-17.4-3.2 3.5-12.8 13.9-16.1 17.4h-82v-92.3h83.1c5 5.6 2.8 3.1 15.5 17.2 3.2-3.5 12.2-13.4 15.7-17.2h58c9.8 0 18 1.9 24.3 5.6v-5.6c54.3 0 64.3-1.4 75.7 5.1v-5.1h78.2v5.2c11.4-6.9 19.6-5.2 64.9-5.2v5c10.3-5.9 16.6-5.2 54.3-5V80c0-26.5-21.5-48-48-48h-480c-26.5 0-48 21.5-48 48v109.8c9.4-21.9 19.7-46 23.1-53.9h39.7c4.3 10.1 1.6 3.7 9 21.1v-21.1h46c2.9 6.2 11.1 24 13.9 30 5.8-13.6 10.1-23.9 12.6-30h103c0-.1 11.5 0 11.6 0 43.7.2 53.6-.8 64.4 5.3v-5.3H363v9.3c7.6-6.1 17.9-9.3 30.7-9.3h27.6c0 .5 1.9.3 2.3.3H456c4.2 9.8 2.6 6 8.8 20.6v-20.6h43.3c4.9 8-1-1.8 11.2 18.4v-18.4h39.9v92h-41.6c-5.4-9-1.4-2.2-13.2-21.9v21.9h-52.8c-6.4-14.8-.1-.3-6.6-15.3h-19c-4.2 10-2.2 5.2-6.4 15.3h-26.8c-12.3 0-22.3-3-29.7-8.9v8.9h-66.5c-.3-13.9-.1-24.8-.1-24.8-1.8-.3-3.4-.2-9.8-.2v25.1H151.2v-11.4c-2.5 5.6-2.7 5.9-5.1 11.4h-29.5c-4-8.9-2.9-6.4-5.1-11.4v11.4H58.6c-4.2-10.1-2.2-5.3-6.4-15.3H33c-4.2 10-2.2 5.2-6.4 15.3H0V432c0 26.5 21.5 48 48 48h480.1c26.5 0 48-21.5 48-48v-90.4c-12.7 8.3-32.7 6.1-67.5 6.1zm36.3-64.5H575v-14.6h-32.9c-12.8 0-23.8 6.6-23.8 20.7 0 33 42.7 12.8 42.7 27.4 0 5.1-4.3 6.4-8.4 6.4h-32l-.1 14.8h32c8.4 0 17.6-1.8 22.5-8.9v-25.8c-10.5-13.8-39.3-1.3-39.3-13.5 0-5.8 4.6-6.5 9.2-6.5zm-57 39.8h-32.2l-.1 14.8h32.2c14.8 0 26.2-5.6 26.2-22 0-33.2-42.9-11.2-42.9-26.3 0-5.6 4.9-6.4 9.2-6.4h30.4v-14.6h-33.2c-12.8 0-23.5 6.6-23.5 20.7 0 33 42.7 12.5 42.7 27.4-.1 5.4-4.7 6.4-8.8 6.4zm-42.2-40.1v-14.3h-55.2l-.1 69.3h55.2l.1-14.3-38.6-.3v-13.8H445v-14.1h-37.8v-12.5zm-56.3-108.1c-.3.2-1.4 2.2-1.4 7.6 0 6 .9 7.7 1.1 7.9.2.1 1.1.5 3.4.5l7.3-16.9c-1.1 0-2.1-.1-3.1-.1-5.6 0-7 .7-7.3 1zm20.4-10.5h-.1zm-16.2-15.2c-23.5 0-34 12-34 35.3 0 22.2 10.2 34 33 34h19.2l6.4-15.3h34.3l6.6 15.3h33.7v-51.9l31.2 51.9h23.6v-69h-16.9v48.1l-29.1-48.1h-25.3v65.4l-27.9-65.4h-24.8l-23.5 54.5h-7.4c-13.3 0-16.1-8.1-16.1-19.9 0-23.8 15.7-20 33.1-19.7v-15.2zm42.1 12.1l11.2 27.6h-22.8zm-101.1-12v69.3h16.9v-69.3z"/></symbol>
<symbol id="bars" viewBox="0 0 448 512"><path fill="currentColor" d="M16 132h416c8.837 0 16-7.163 16-16V76c0-8.837-7.163-16-16-16H16C7.163 60 0 67.163 0 76v40c0 8.837 7.163 16 16 16zm0 160h416c8.837 0 16-7.163 16-16v-40c0-8.837-7.163-16-16-16H16c-8.837 0-16 7.163-16 16v40c0 8.837 7.163 16 16 16zm0 160h416c8.837 0 16-7.163 16-16v-40c0-8.837-7.163-16-16-16H16c-8.837 0-16 7.163-16 16v40c0 8.837 7.163 16 16 16z"/></symbol>
<symbol id="clock" viewBox="0 0 362.58 364.26"><path d="M192.51 358h-21.93c-4.29-.5-8.59-.93-12.87-1.52-25.66-3.54-49.48-12.14-71.15-26.4-41.14-27.07-66.89-64.73-77.02-112.94-1.63-7.76-2.3-15.73-3.41-23.6v-21.93c.23-1.44.44-2.88.69-4.32 1.83-10.54 2.82-21.32 5.65-31.59C22.49 99.45 42.26 69.28 71.7 45.8c39.23-31.29 84.1-43.12 133.7-37.04 25.38 3.11 48.95 11.78 70.34 25.85 46.16 30.36 73.32 72.84 79.92 127.84 4.47 37.21-2.14 72.6-20.73 105.27-26.6 46.74-66.44 75.76-119.09 86.93-7.68 1.63-15.55 2.26-23.33 3.35zm113.21-175.52c-.15-68.98-55.64-124.34-124.37-124.07-68.93.27-123.9 55.29-123.99 124.12-.09 68.83 55.34 124.28 124.2 124.24 68.92-.04 124.32-55.49 124.16-124.29z"/><path d="M181.54 182.59v-3.99-74c0-7.38 2.29-9.7 9.57-9.72 3.77-.01 7.54-.05 11.31.01 5.55.09 8.11 2.6 8.42 8.15.05.8.01 1.6.01 2.4v95.92c0 8.32-2.21 10.5-10.58 10.51h-66.8c-1.14 0-2.29.02-3.42-.14-4.56-.62-6.71-2.87-6.85-7.44-.14-4.45-.11-8.91-.04-13.36.09-5.78 2.63-8.31 8.45-8.33 15.3-.05 30.6-.02 45.91-.02 1.23.01 2.46.01 4.02.01z"/></symbol>
<symbol id="discover" viewBox="0 0 576 512"><path fill="currentColor" d="M520.4 196.1c0-7.9-5.5-12.1-15.6-12.1h-4.9v24.9h4.7c10.3 0 15.8-4.4 15.8-12.8zM528 32H48C21.5 32 0 53.5 0 80v352c0 26.5 21.5 48 48 48h480c26.5 0 48-21.5 48-48V80c0-26.5-21.5-48-48-48zm-44.1 138.9c22.6 0 52.9-4.1 52.9 24.4 0 12.6-6.6 20.7-18.7 23.2l25.8 34.4h-19.6l-22.2-32.8h-2.2v32.8h-16zm-55.9.1h45.3v14H444v18.2h28.3V217H444v22.2h29.3V253H428zm-68.7 0l21.9 55.2 22.2-55.2h17.5l-35.5 84.2h-8.6l-35-84.2zm-55.9-3c24.7 0 44.6 20 44.6 44.6 0 24.7-20 44.6-44.6 44.6-24.7 0-44.6-20-44.6-44.6 0-24.7 20-44.6 44.6-44.6zm-49.3 6.1v19c-20.1-20.1-46.8-4.7-46.8 19 0 25 27.5 38.5 46.8 19.2v19c-29.7 14.3-63.3-5.7-63.3-38.2 0-31.2 33.1-53 63.3-38zm-97.2 66.3c11.4 0 22.4-15.3-3.3-24.4-15-5.5-20.2-11.4-20.2-22.7 0-23.2 30.6-31.4 49.7-14.3l-8.4 10.8c-10.4-11.6-24.9-6.2-24.9 2.5 0 4.4 2.7 6.9 12.3 10.3 18.2 6.6 23.6 12.5 23.6 25.6 0 29.5-38.8 37.4-56.6 11.3l10.3-9.9c3.7 7.1 9.9 10.8 17.5 10.8zM55.4 253H32v-82h23.4c26.1 0 44.1 17 44.1 41.1 0 18.5-13.2 40.9-44.1 40.9zm67.5 0h-16v-82h16zM544 433c0 8.2-6.8 15-15 15H128c189.6-35.6 382.7-139.2 416-160zM74.1 191.6c-5.2-4.9-11.6-6.6-21.9-6.6H48v54.2h4.2c10.3 0 17-2 21.9-6.4 5.7-5.2 8.9-12.8 8.9-20.7s-3.2-15.5-8.9-20.5z"/></symbol>
<symbol id="facebook" viewBox="0 0 264 512"><path fill="currentColor" d="M215.8 85H264V3.6C255.7 2.5 227.1 0 193.8 0 124.3 0 76.7 42.4 76.7 120.3V192H0v91h76.7v229h94V283h73.6l11.7-91h-85.3v-62.7c0-26.3 7.3-44.3 45.1-44.3z"/></symbol>
<symbol id="instagram" viewBox="0 0 448 512"><path fill="currentColor" d="M224.1 141c-63.6 0-114.9 51.3-114.9 114.9s51.3 114.9 114.9 114.9S339 319.5 339 255.9 287.7 141 224.1 141zm0 189.6c-41.1 0-74.7-33.5-74.7-74.7s33.5-74.7 74.7-74.7 74.7 33.5 74.7 74.7-33.6 74.7-74.7 74.7zm146.4-194.3c0 14.9-12 26.8-26.8 26.8-14.9 0-26.8-12-26.8-26.8s12-26.8 26.8-26.8 26.8 12 26.8 26.8zm76.1 27.2c-1.7-35.9-9.9-67.7-36.2-93.9-26.2-26.2-58-34.4-93.9-36.2-37-2.1-147.9-2.1-184.9 0-35.8 1.7-67.6 9.9-93.9 36.1s-34.4 58-36.2 93.9c-2.1 37-2.1 147.9 0 184.9 1.7 35.9 9.9 67.7 36.2 93.9s58 34.4 93.9 36.2c37 2.1 147.9 2.1 184.9 0 35.9-1.7 67.7-9.9 93.9-36.2 26.2-26.2 34.4-58 36.2-93.9 2.1-37 2.1-147.8 0-184.8zM398.8 388c-7.8 19.6-22.9 34.7-42.6 42.6-29.5 11.7-99.5 9-132.1 9s-102.7 2.6-132.1-9c-19.6-7.8-34.7-22.9-42.6-42.6-11.7-29.5-9-99.5-9-132.1s-2.6-102.7 9-132.1c7.8-19.6 22.9-34.7 42.6-42.6 29.5-11.7 99.5-9 132.1-9s102.7-2.6 132.1 9c19.6 7.8 34.7 22.9 42.6 42.6 11.7 29.5 9 99.5 9 132.1s2.7 102.7-9 132.1z"/></symbol>
<symbol id="life-ring" viewBox="0 0 512 512"><path d="M256 504c136.967 0 248-111.033 248-248S392.967 8 256 8 8 119.033 8 256s111.033 248 248 248zm-103.398-76.72l53.411-53.411c31.806 13.506 68.128 13.522 99.974 0l53.411 53.411c-63.217 38.319-143.579 38.319-206.796 0zM336 256c0 44.112-35.888 80-80 80s-80-35.888-80-80 35.888-80 80-80 80 35.888 80 80zm91.28 103.398l-53.411-53.411c13.505-31.806 13.522-68.128 0-99.974l53.411-53.411c38.319 63.217 38.319 143.579 0 206.796zM359.397 84.72l-53.411 53.411c-31.806-13.505-68.128-13.522-99.973 0L152.602 84.72c63.217-38.319 143.579-38.319 206.795 0zM84.72 152.602l53.411 53.411c-13.506 31.806-13.522 68.128 0 99.974L84.72 359.398c-38.319-63.217-38.319-143.579 0-206.796z"/></symbol>
<symbol id="mastercard" viewBox="0 0 576 512"><path fill="currentColor" d="M482.9 410.3c0 6.8-4.6 11.7-11.2 11.7-6.8 0-11.2-5.2-11.2-11.7 0-6.5 4.4-11.7 11.2-11.7 6.6 0 11.2 5.2 11.2 11.7zm-310.8-11.7c-7.1 0-11.2 5.2-11.2 11.7 0 6.5 4.1 11.7 11.2 11.7 6.5 0 10.9-4.9 10.9-11.7-.1-6.5-4.4-11.7-10.9-11.7zm117.5-.3c-5.4 0-8.7 3.5-9.5 8.7h19.1c-.9-5.7-4.4-8.7-9.6-8.7zm107.8.3c-6.8 0-10.9 5.2-10.9 11.7 0 6.5 4.1 11.7 10.9 11.7 6.8 0 11.2-4.9 11.2-11.7 0-6.5-4.4-11.7-11.2-11.7zm105.9 26.1c0 .3.3.5.3 1.1 0 .3-.3.5-.3 1.1-.3.3-.3.5-.5.8-.3.3-.5.5-1.1.5-.3.3-.5.3-1.1.3-.3 0-.5 0-1.1-.3-.3 0-.5-.3-.8-.5-.3-.3-.5-.5-.5-.8-.3-.5-.3-.8-.3-1.1 0-.5 0-.8.3-1.1 0-.5.3-.8.5-1.1.3-.3.5-.3.8-.5.5-.3.8-.3 1.1-.3.5 0 .8 0 1.1.3.5.3.8.3 1.1.5s.2.6.5 1.1zm-2.2 1.4c.5 0 .5-.3.8-.3.3-.3.3-.5.3-.8 0-.3 0-.5-.3-.8-.3 0-.5-.3-1.1-.3h-1.6v3.5h.8V426h.3l1.1 1.4h.8l-1.1-1.3zM576 81v352c0 26.5-21.5 48-48 48H48c-26.5 0-48-21.5-48-48V81c0-26.5 21.5-48 48-48h480c26.5 0 48 21.5 48 48zM64 220.6c0 76.5 62.1 138.5 138.5 138.5 27.2 0 53.9-8.2 76.5-23.1-72.9-59.3-72.4-171.2 0-230.5-22.6-15-49.3-23.1-76.5-23.1-76.4-.1-138.5 62-138.5 138.2zm224 108.8c70.5-55 70.2-162.2 0-217.5-70.2 55.3-70.5 162.6 0 217.5zm-142.3 76.3c0-8.7-5.7-14.4-14.7-14.7-4.6 0-9.5 1.4-12.8 6.5-2.4-4.1-6.5-6.5-12.2-6.5-3.8 0-7.6 1.4-10.6 5.4V392h-8.2v36.7h8.2c0-18.9-2.5-30.2 9-30.2 10.2 0 8.2 10.2 8.2 30.2h7.9c0-18.3-2.5-30.2 9-30.2 10.2 0 8.2 10 8.2 30.2h8.2v-23zm44.9-13.7h-7.9v4.4c-2.7-3.3-6.5-5.4-11.7-5.4-10.3 0-18.2 8.2-18.2 19.3 0 11.2 7.9 19.3 18.2 19.3 5.2 0 9-1.9 11.7-5.4v4.6h7.9V392zm40.5 25.6c0-15-22.9-8.2-22.9-15.2 0-5.7 11.9-4.8 18.5-1.1l3.3-6.5c-9.4-6.1-30.2-6-30.2 8.2 0 14.3 22.9 8.3 22.9 15 0 6.3-13.5 5.8-20.7.8l-3.5 6.3c11.2 7.6 32.6 6 32.6-7.5zm35.4 9.3l-2.2-6.8c-3.8 2.1-12.2 4.4-12.2-4.1v-16.6h13.1V392h-13.1v-11.2h-8.2V392h-7.6v7.3h7.6V416c0 17.6 17.3 14.4 22.6 10.9zm13.3-13.4h27.5c0-16.2-7.4-22.6-17.4-22.6-10.6 0-18.2 7.9-18.2 19.3 0 20.5 22.6 23.9 33.8 14.2l-3.8-6c-7.8 6.4-19.6 5.8-21.9-4.9zm59.1-21.5c-4.6-2-11.6-1.8-15.2 4.4V392h-8.2v36.7h8.2V408c0-11.6 9.5-10.1 12.8-8.4l2.4-7.6zm10.6 18.3c0-11.4 11.6-15.1 20.7-8.4l3.8-6.5c-11.6-9.1-32.7-4.1-32.7 15 0 19.8 22.4 23.8 32.7 15l-3.8-6.5c-9.2 6.5-20.7 2.6-20.7-8.6zm66.7-18.3H408v4.4c-8.3-11-29.9-4.8-29.9 13.9 0 19.2 22.4 24.7 29.9 13.9v4.6h8.2V392zm33.7 0c-2.4-1.2-11-2.9-15.2 4.4V392h-7.9v36.7h7.9V408c0-11 9-10.3 12.8-8.4l2.4-7.6zm40.3-14.9h-7.9v19.3c-8.2-10.9-29.9-5.1-29.9 13.9 0 19.4 22.5 24.6 29.9 13.9v4.6h7.9v-51.7zm7.6-75.1v4.6h.8V302h1.9v-.8h-4.6v.8h1.9zm6.6 123.8c0-.5 0-1.1-.3-1.6-.3-.3-.5-.8-.8-1.1-.3-.3-.8-.5-1.1-.8-.5 0-1.1-.3-1.6-.3-.3 0-.8.3-1.4.3-.5.3-.8.5-1.1.8-.5.3-.8.8-.8 1.1-.3.5-.3 1.1-.3 1.6 0 .3 0 .8.3 1.4 0 .3.3.8.8 1.1.3.3.5.5 1.1.8.5.3 1.1.3 1.4.3.5 0 1.1 0 1.6-.3.3-.3.8-.5 1.1-.8.3-.3.5-.8.8-1.1.3-.6.3-1.1.3-1.4zm3.2-124.7h-1.4l-1.6 3.5-1.6-3.5h-1.4v5.4h.8v-4.1l1.6 3.5h1.1l1.4-3.5v4.1h1.1v-5.4zm4.4-80.5c0-76.2-62.1-138.3-138.5-138.3-27.2 0-53.9 8.2-76.5 23.1 72.1 59.3 73.2 171.5 0 230.5 22.6 15 49.5 23.1 76.5 23.1 76.4.1 138.5-61.9 138.5-138.4z"/></symbol>
<symbol id="phone" viewBox="0 0 512 512"><path fill="currentColor" d="M493.4 24.6l-104-24c-11.3-2.6-22.9 3.3-27.5 13.9l-48 112c-4.2 9.8-1.4 21.3 6.9 28l60.6 49.6c-36 76.7-98.9 140.5-177.2 177.2l-49.6-60.6c-6.8-8.3-18.2-11.1-28-6.9l-112 48C3.9 366.5-2 378.1.6 389.4l24 104C27.1 504.2 36.7 512 48 512c256.1 0 464-207.5 464-464 0-11.2-7.7-20.9-18.6-23.4z"/></symbol>
<symbol id="pinterest" viewBox="0 0 384 512"><path fill="currentColor" d="M204 6.5C101.4 6.5 0 74.9 0 185.6 0 256 39.6 296 63.6 296c9.9 0 15.6-27.6 15.6-35.4 0-9.3-23.7-29.1-23.7-67.8 0-80.4 61.2-137.4 140.4-137.4 68.1 0 118.5 38.7 118.5 109.8 0 53.1-21.3 152.7-90.3 152.7-24.9 0-46.2-18-46.2-43.8 0-37.8 26.4-74.4 26.4-113.4 0-66.2-93.9-54.2-93.9 25.8 0 16.8 2.1 35.4 9.6 50.7-13.8 59.4-42 147.9-42 209.1 0 18.9 2.7 37.5 4.5 56.4 3.4 3.8 1.7 3.4 6.9 1.5 50.4-69 48.6-82.5 71.4-172.8 12.3 23.4 44.1 36 69.3 36 106.2 0 153.9-103.5 153.9-196.8C384 71.3 298.2 6.5 204 6.5z"/></symbol>
<symbol id="plane" viewBox="0 0 576 512"><path fill="currentColor" d="M480 192H365.71L260.61 8.06A16.014 16.014 0 0 0 246.71 0h-65.5c-10.63 0-18.3 10.17-15.38 20.39L214.86 192H112l-43.2-57.6c-3.02-4.03-7.77-6.4-12.8-6.4H16.01C5.6 128-2.04 137.78.49 147.88L32 256 .49 364.12C-2.04 374.22 5.6 384 16.01 384H56c5.04 0 9.78-2.37 12.8-6.4L112 320h102.86l-49.03 171.6c-2.92 10.22 4.75 20.4 15.38 20.4h65.5c5.74 0 11.04-3.08 13.89-8.06L365.71 320H480c35.35 0 96-28.65 96-64s-60.65-64-96-64z"/></symbol>
<symbol id="twitter" viewBox="0 0 512 512"><path fill="currentColor" d="M459.37 151.716c.325 4.548.325 9.097.325 13.645 0 138.72-105.583 298.558-298.558 298.558-59.452 0-114.68-17.219-161.137-47.106 8.447.974 16.568 1.299 25.34 1.299 49.055 0 94.213-16.568 130.274-44.832-46.132-.975-84.792-31.188-98.112-72.772 6.498.974 12.995 1.624 19.818 1.624 9.421 0 18.843-1.3 27.614-3.573-48.081-9.747-84.143-51.98-84.143-102.985v-1.299c13.969 7.797 30.214 12.67 47.431 13.319-28.264-18.843-46.781-51.005-46.781-87.391 0-19.492 5.197-37.36 14.294-52.954 51.655 63.675 129.3 105.258 216.365 109.807-1.624-7.797-2.599-15.918-2.599-24.04 0-57.828 46.782-104.934 104.934-104.934 30.213 0 57.502 12.67 76.67 33.137 23.715-4.548 46.456-13.32 66.599-25.34-7.798 24.366-24.366 44.833-46.132 57.827 21.117-2.273 41.584-8.122 60.426-16.243-14.292 20.791-32.161 39.308-52.628 54.253z"/></symbol>
<symbol id="visa" viewBox="0 0 576 512"><path fill="currentColor" d="M470.1 231.3s7.6 37.2 9.3 45H446c3.3-8.9 16-43.5 16-43.5-.2.3 3.3-9.1 5.3-14.9l2.8 13.4zM576 80v352c0 26.5-21.5 48-48 48H48c-26.5 0-48-21.5-48-48V80c0-26.5 21.5-48 48-48h480c26.5 0 48 21.5 48 48zM152.5 331.2L215.7 176h-42.5l-39.3 106-4.3-21.5-14-71.4c-2.3-9.9-9.4-12.7-18.2-13.1H32.7l-.7 3.1c15.8 4 29.9 9.8 42.2 17.1l35.8 135h42.5zm94.4.2L272.1 176h-40.2l-25.1 155.4h40.1zm139.9-50.8c.2-17.7-10.6-31.2-33.7-42.3-14.1-7.1-22.7-11.9-22.7-19.2.2-6.6 7.3-13.4 23.1-13.4 13.1-.3 22.7 2.8 29.9 5.9l3.6 1.7 5.5-33.6c-7.9-3.1-20.5-6.6-36-6.6-39.7 0-67.6 21.2-67.8 51.4-.3 22.3 20 34.7 35.2 42.2 15.5 7.6 20.8 12.6 20.8 19.3-.2 10.4-12.6 15.2-24.1 15.2-16 0-24.6-2.5-37.7-8.3l-5.3-2.5-5.6 34.9c9.4 4.3 26.8 8.1 44.8 8.3 42.2.1 69.7-20.8 70-53zM528 331.4L495.6 176h-31.1c-9.6 0-16.9 2.8-21 12.9l-59.7 142.5H426s6.9-19.2 8.4-23.3H486c1.2 5.5 4.8 23.3 4.8 23.3H528z"/></symbol>
<symbol id="wifi" viewBox="0 0 640 512"><path d="M634.91 154.88C457.74-8.99 182.19-8.93 5.09 154.88c-6.66 6.16-6.79 16.59-.35 22.98l34.24 33.97c6.14 6.1 16.02 6.23 22.4.38 145.92-133.68 371.3-133.71 517.25 0 6.38 5.85 16.26 5.71 22.4-.38l34.24-33.97c6.43-6.39 6.3-16.82-.36-22.98zM320 352c-35.35 0-64 28.65-64 64s28.65 64 64 64 64-28.65 64-64-28.65-64-64-64zm202.67-83.59c-115.26-101.93-290.21-101.82-405.34 0-6.9 6.1-7.12 16.69-.57 23.15l34.44 33.99c6 5.92 15.66 6.32 22.05.8 83.95-72.57 209.74-72.41 293.49 0 6.39 5.52 16.05 5.13 22.05-.8l34.44-33.99c6.56-6.46 6.33-17.06-.56-23.15z"/></symbol>
</svg>