<?xml version="1.0" standalone="no"?>
<!DOCTYPE svg PUBLIC "-//W3C//DTD SVG 20010904//EN"
 "http://www.w3.org/TR/2001/REC-SVG-20010904/DTD/svg10.dtd">
<svg version="1.0" xmlns="http://www.w3.org/2000/svg"
 width="225.000000pt" height="225.000000pt" viewBox="0 0 225.000000 225.000000"
 preserveAspectRatio="xMidYMid meet">
<metadata>
Created by potrace 1.11, written by Peter Selinger 2001-2013
</metadata>
<g transform="translate(0.000000,225.000000) scale(0.100000,-0.100000)"
fill="#000000" stroke="none">
<path d="M905 1976 c-94 -34 -125 -54 -191 -120 -99 -99 -144 -219 -144 -381
0 -267 142 -393 547 -485 241 -55 369 -114 413 -192 34 -59 35 -162 1 -230
-30 -62 -90 -121 -158 -155 -106 -51 -299 -29 -413 47 -131 87 -230 236 -267
400 l-18 80 -67 0 -68 0 0 -103 c0 -57 3 -211 7 -343 l6 -239 59 3 c32 2 58 7
58 11 0 3 24 33 54 66 l53 60 56 -37 c112 -75 235 -111 377 -111 108 0 188 17
268 56 298 147 387 554 171 782 -93 98 -203 142 -590 233 -157 37 -257 101
-279 180 -35 126 23 265 134 320 153 77 338 36 472 -104 48 -49 120 -192 155
-306 l24 -78 57 0 58 0 0 325 0 325 -62 0 -63 0 -40 -60 c-22 -33 -44 -60 -48
-60 -5 0 -27 13 -50 29 -118 81 -218 111 -357 110 -71 -1 -110 -6 -155 -23z"/>
</g>
</svg>
