<svg xmlns="http://www.w3.org/2000/svg" viewBox="0 0 362.58 364.26"><path d="M192.51 358h-21.93c-4.29-.5-8.59-.93-12.87-1.52-25.66-3.54-49.48-12.14-71.15-26.4-41.14-27.07-66.89-64.73-77.02-112.94-1.63-7.76-2.3-15.73-3.41-23.6v-21.93c.23-1.44.44-2.88.69-4.32 1.83-10.54 2.82-21.32 5.65-31.59C22.49 99.45 42.26 69.28 71.7 45.8c39.23-31.29 84.1-43.12 133.7-37.04 25.38 3.11 48.95 11.78 70.34 25.85 46.16 30.36 73.32 72.84 79.92 127.84 4.47 37.21-2.14 72.6-20.73 105.27-26.6 46.74-66.44 75.76-119.09 86.93-7.68 1.63-15.55 2.26-23.33 3.35zm113.21-175.52c-.15-68.98-55.64-124.34-124.37-124.07-68.93.27-123.9 55.29-123.99 124.12-.09 68.83 55.34 124.28 124.2 124.24 68.92-.04 124.32-55.49 124.16-124.29z"/><path d="M181.54 182.59V104.6c0-7.38 2.29-9.7 9.57-9.72 3.77-.01 7.54-.05 11.31.01 5.55.09 8.11 2.6 8.42 8.15.05.8.01 1.6.01 2.4v95.92c0 8.32-2.21 10.5-10.58 10.51h-66.8c-1.14 0-2.29.02-3.42-.14-4.56-.62-6.71-2.87-6.85-7.44-.14-4.45-.11-8.91-.04-13.36.09-5.78 2.63-8.31 8.45-8.33 15.3-.05 30.6-.02 45.91-.02 1.23.01 2.46.01 4.02.01z"/></svg>